HIERARCHY
ROOT Hips
{
	OFFSET 0.000000 0.000000 0.000000
	CHANNELS 6 Xposition Yposition Zposition Zrotation Xrotation Yrotation
	JOINT Spine
	{
		OFFSET 0.000000 -0.000000 0.081624
		CHANNELS 6 Xposition Yposition Zposition Zrotation Xrotation Yrotation
		JOINT Spine1
		{
			OFFSET 0.000000 -0.000000 0.223658
			CHANNELS 6 Xposition Yposition Zposition Zrotation Xrotation Yrotation
			JOINT Neck
			{
				OFFSET 0.000000 -0.000000 0.223658
				CHANNELS 6 Xposition Yposition Zposition Zrotation Xrotation Yrotation
				JOINT Head
				{
					OFFSET 0.000000 -0.000000 0.109496
					CHANNELS 6 Xposition Yposition Zposition Zrotation Xrotation Yrotation
					End Site
					{
						OFFSET 0.000000 -0.000000 0.248855
					}
				}
			}
			JOINT LeftShoulder
			{
				OFFSET 0.038712 0.001691 0.204072
				CHANNELS 6 Xposition Yposition Zposition Zrotation Xrotation Yrotation
				JOINT LeftArm
				{
					OFFSET 0.112670 0.000000 0.000000
					CHANNELS 6 Xposition Yposition Zposition Zrotation Xrotation Yrotation
					JOINT LeftForeArm
					{
						OFFSET 0.324399 0.000000 0.000000
						CHANNELS 6 Xposition Yposition Zposition Zrotation Xrotation Yrotation
						JOINT LeftHand
						{
							OFFSET 0.295418 0.000000 0.000000
							CHANNELS 6 Xposition Yposition Zposition Zrotation Xrotation Yrotation
							End Site
							{
								OFFSET 0.149313 0.000000 0.000000
							}
						}
					}
				}
			}
			JOINT RightShoulder
			{
				OFFSET -0.038825 0.001691 0.204072
				CHANNELS 6 Xposition Yposition Zposition Zrotation Xrotation Yrotation
				JOINT RightArm
				{
					OFFSET -0.112670 0.000000 0.000000
					CHANNELS 6 Xposition Yposition Zposition Zrotation Xrotation Yrotation
					JOINT RightForeArm
					{
						OFFSET -0.324399 0.000000 0.000000
						CHANNELS 6 Xposition Yposition Zposition Zrotation Xrotation Yrotation
						JOINT RightHand
						{
							OFFSET -0.295418 0.000000 0.000000
							CHANNELS 6 Xposition Yposition Zposition Zrotation Xrotation Yrotation
							End Site
							{
								OFFSET -0.149313 0.000000 0.000000
							}
						}
					}
				}
			}
		}
	}
	JOINT LeftUpLeg
	{
		OFFSET 0.099542 0.000000 0.000000
		CHANNELS 6 Xposition Yposition Zposition Zrotation Xrotation Yrotation
		JOINT LeftLeg
		{
			OFFSET 0.000000 0.000000 -0.482893
			CHANNELS 6 Xposition Yposition Zposition Zrotation Xrotation Yrotation
			JOINT LeftFoot
			{
				OFFSET 0.000000 0.000000 -0.449402
				CHANNELS 6 Xposition Yposition Zposition Zrotation Xrotation Yrotation
				JOINT LeftToeBase
				{
					OFFSET 0.000000 -0.149313 -0.064702
					CHANNELS 6 Xposition Yposition Zposition Zrotation Xrotation Yrotation
					End Site
					{
						OFFSET 0.000000 -0.039817 -0.000000
					}
				}
			}
		}
	}
	JOINT RightUpLeg
	{
		OFFSET -0.099542 0.000000 0.000000
		CHANNELS 6 Xposition Yposition Zposition Zrotation Xrotation Yrotation
		JOINT RightLeg
		{
			OFFSET 0.000000 0.000000 -0.482893
			CHANNELS 6 Xposition Yposition Zposition Zrotation Xrotation Yrotation
			JOINT RightFoot
			{
				OFFSET 0.000000 0.000000 -0.449402
				CHANNELS 6 Xposition Yposition Zposition Zrotation Xrotation Yrotation
				JOINT RightToeBase
				{
					OFFSET 0.000000 -0.149313 -0.064702
					CHANNELS 6 Xposition Yposition Zposition Zrotation Xrotation Yrotation
					End Site
					{
						OFFSET 0.000000 -0.039817 -0.000000
					}
				}
			}
		}
	}
}
MOTION
Frames: 9
Frame Time: 0.041667
0.592188 -0.315382 0.975203 -20.932686 6.591609 1.500935 -0.000000 -0.000000 0.081624 -0.047785 2.760392 1.982691 -0.000000 -0.000000 0.223658 4.442433 2.395706 8.238253 0.000000 -0.000000 0.223658 0.940791 22.780146 -4.667006 0.000000 0.000000 0.109496 6.798665 -20.171905 -4.580902 0.038712 0.001691 0.204072 18.033484 13.813847 0.008097 0.112670 -0.000000 0.000000 -28.471521 6.779542 73.967896 0.324399 0.000000 0.000000 -1.197880 0.017400 -1.665025 0.295418 -0.000000 0.000000 -2.623337 -3.615800 -4.978230 -0.038825 0.001691 0.204072 17.967210 19.015943 -2.549905 -0.112670 0.000000 0.000000 32.022567 26.891431 -67.360036 -0.324399 0.000000 -0.000000 116.376342 6.949822 4.311404 -0.295418 -0.000000 -0.000000 -7.207360 -20.292074 -6.518814 0.099542 -0.000000 -0.000000 3.214675 -11.845872 -9.111232 0.000000 0.000000 -0.482893 18.063371 -8.936865 3.169728 -0.000000 0.000000 -0.449402 15.180753 3.043136 9.576557 0.000000 -0.149313 -0.064702 -0.000001 -0.000001 0.000002 -0.099542 -0.000000 0.000000 -1.163981 -5.066399 2.589628 0.000000 0.000000 -0.482893 6.810562 18.292331 -2.237396 -0.000000 0.000000 -0.449402 -3.700924 -7.284956 -7.637529 -0.000000 -0.149313 -0.064702 0.000001 -0.000002 -0.000002 
0.594012 -0.331453 0.972497 -21.714370 6.431433 1.907363 -0.000000 -0.000000 0.081624 -0.054987 2.776059 2.268841 -0.000000 -0.000000 0.223658 4.388636 2.747363 8.249464 -0.000000 -0.000000 0.223658 0.905322 23.219547 -4.404039 0.000000 -0.000000 0.109496 7.265872 -20.619031 -4.718541 0.038712 0.001691 0.204072 17.900789 14.262632 0.103853 0.112670 0.000000 -0.000000 -27.190744 6.879766 74.330449 0.324399 -0.000000 -0.000000 -1.101925 0.014095 -1.466448 0.295418 -0.000000 0.000000 -2.306702 -5.268670 -3.846545 -0.038825 0.001691 0.204072 17.578168 18.940048 -2.303013 -0.112670 0.000000 0.000000 32.086118 26.876262 -67.562449 -0.324399 -0.000000 -0.000000 116.233482 7.070199 4.398446 -0.295418 0.000000 -0.000000 -6.618568 -20.543963 -6.353111 0.099542 -0.000000 -0.000000 4.240295 -12.562355 -9.369824 -0.000000 0.000000 -0.482893 16.207837 -7.395805 3.125079 0.000000 0.000000 -0.449402 16.469876 2.200143 10.434483 0.000000 -0.149313 -0.064702 -0.000000 0.000001 0.000000 -0.099542 0.000000 -0.000000 -0.988217 -4.886342 2.617247 -0.000000 0.000000 -0.482893 7.092309 19.705815 -1.989136 -0.000000 0.000000 -0.449402 -2.971982 -7.648097 -8.444742 -0.000000 -0.149313 -0.064702 0.000000 -0.000003 0.000001 
0.596571 -0.348064 0.969869 -22.191414 6.041467 2.123467 -0.000000 0.000000 0.081624 -0.069302 3.006695 2.639860 -0.000000 -0.000000 0.223658 4.165732 3.102347 8.301847 0.000000 -0.000000 0.223658 0.888497 23.724146 -4.227742 0.000000 -0.000000 0.109496 7.584798 -21.174257 -4.736030 0.038712 0.001691 0.204072 17.729351 14.576570 0.192012 0.112670 0.000000 -0.000000 -26.537515 7.015500 74.601799 0.324399 0.000000 0.000000 -1.374697 0.015643 -1.305061 0.295418 -0.000000 -0.000000 -1.946349 -6.657324 -2.726842 -0.038825 0.001691 0.204072 17.181044 18.927257 -2.101291 -0.112670 -0.000000 -0.000000 32.053668 26.830993 -67.729986 -0.324399 -0.000000 -0.000000 116.108080 7.159411 4.464956 -0.295418 0.000000 -0.000000 -5.938245 -20.715443 -5.922068 0.099542 0.000000 0.000000 6.415973 -13.510125 -9.007353 0.000000 0.000000 -0.482893 11.063221 -4.256614 2.468382 -0.000000 0.000000 -0.449402 17.839064 2.175769 9.184491 -0.000000 -0.149313 -0.064702 -0.000001 0.000001 0.000001 -0.099542 -0.000000 -0.000000 -0.887990 -4.679566 2.782262 -0.000000 0.000000 -0.482893 6.736158 21.626527 -1.381921 -0.000000 0.000000 -0.449402 -1.740829 -7.888963 -9.709801 0.000000 -0.149313 -0.064702 -0.000003 0.000001 0.000000 
0.599769 -0.365214 0.967619 -22.461009 5.506785 2.145927 -0.000000 0.000000 0.081624 -0.090477 3.325006 3.116319 -0.000000 -0.000000 0.223658 3.816488 3.479381 8.400844 0.000000 0.000000 0.223658 0.878955 24.380166 -4.066481 -0.000000 -0.000000 0.109496 7.876475 -21.886805 -4.726981 0.038712 0.001691 0.204072 17.530584 14.716735 0.325136 0.112670 0.000000 0.000000 -26.498873 7.196812 74.735500 0.324399 0.000000 0.000000 -1.926470 0.019495 -1.160616 0.295418 0.000000 0.000000 -1.549989 -7.097963 -1.655105 -0.038825 0.001691 0.204072 16.979147 19.018465 -2.048975 -0.112670 0.000000 0.000000 31.938313 26.726872 -67.855320 -0.324399 0.000000 -0.000000 115.969755 7.300030 4.565132 -0.295418 0.000000 -0.000000 -5.518843 -20.974630 -5.336563 0.099542 -0.000000 -0.000000 7.789521 -14.143703 -8.467148 -0.000000 0.000000 -0.482893 5.752982 -0.522682 1.886547 0.000000 0.000000 -0.449402 19.042644 2.437494 5.684365 -0.000000 -0.149313 -0.064702 -0.000001 0.000002 -0.000001 -0.099542 0.000000 -0.000000 -1.014963 -4.678571 3.018091 -0.000000 0.000000 -0.482893 5.529782 24.295592 -0.136457 -0.000000 0.000000 -0.449402 0.296420 -7.757748 -11.429065 0.000000 -0.149313 -0.064702 -0.000001 -0.000001 0.000002 
0.603333 -0.382432 0.966293 -22.649321 5.009221 2.023314 0.000000 -0.000000 0.081624 -0.114531 3.581907 3.661410 -0.000000 -0.000000 0.223658 3.426895 3.803265 8.588188 -0.000000 -0.000000 0.223658 0.869257 25.161792 -3.892882 -0.000000 -0.000000 0.109496 8.189652 -22.596354 -4.745986 0.038712 0.001691 0.204072 17.280903 14.635075 0.492545 0.112670 0.000000 0.000000 -27.025821 7.471933 74.703678 0.324399 0.000000 0.000000 -2.651591 0.024070 -1.041609 0.295418 0.000000 -0.000000 -1.223248 -6.701690 -0.644899 -0.038825 0.001691 0.204072 17.047341 19.175765 -2.177713 -0.112670 -0.000000 -0.000000 31.856054 26.536653 -68.005475 -0.324399 -0.000000 -0.000000 115.739782 7.539489 4.736301 -0.295418 0.000000 -0.000000 -5.426906 -21.446425 -4.802759 0.099542 -0.000000 0.000000 7.809288 -14.531873 -8.034775 -0.000000 0.000000 -0.482893 2.692095 3.265668 1.718146 0.000000 0.000000 -0.449402 19.850499 1.755926 1.879891 -0.000000 -0.149313 -0.064702 -0.000001 -0.000002 0.000000 -0.099542 -0.000000 0.000000 -1.343651 -5.224363 3.252713 -0.000000 0.000000 -0.482893 3.346522 27.791678 1.935891 0.000000 0.000000 -0.449402 3.287800 -6.793184 -13.188584 -0.000000 -0.149313 -0.064702 -0.000001 0.000002 -0.000000 
0.607031 -0.399601 0.966218 -22.833657 4.613801 1.827824 -0.000000 -0.000000 0.081624 -0.138475 3.771874 4.203414 -0.000000 -0.000000 0.223658 3.089476 3.989911 8.865775 0.000000 -0.000000 0.223658 0.851042 25.902919 -3.698658 0.000000 -0.000000 0.109496 8.492456 -22.982038 -4.757740 0.038712 0.001691 0.204072 16.951736 14.332990 0.634533 0.112670 0.000000 0.000000 -28.102620 7.848389 74.526933 0.324399 0.000000 0.000000 -3.466508 0.030005 -0.993155 0.295418 -0.000000 0.000000 -1.053279 -5.824508 0.256440 -0.038825 0.001691 0.204072 17.260957 19.337135 -2.397444 -0.112670 0.000000 -0.000000 31.906337 26.288502 -68.223829 -0.324399 0.000000 0.000000 115.440879 7.860753 4.967236 -0.295418 -0.000000 0.000000 -5.479036 -22.081078 -4.411279 0.099542 -0.000000 -0.000000 7.149986 -14.861139 -7.791426 -0.000000 0.000000 -0.482893 1.715718 6.947361 2.041759 0.000000 0.000000 -0.449402 20.802864 0.000186 -0.110959 -0.000000 -0.149313 -0.064702 -0.000001 0.000000 0.000000 -0.099542 -0.000000 -0.000000 -1.715212 -6.451480 3.438730 0.000000 0.000000 -0.482893 0.283878 31.963974 4.844116 0.000000 0.000000 -0.449402 7.023985 -4.441662 -14.267008 0.000000 -0.149313 -0.064702 -0.000000 -0.000003 0.000001 
0.610604 -0.416549 0.967071 -23.049424 4.227803 1.671880 0.000000 -0.000000 0.081624 -0.161230 3.998666 4.615994 -0.000000 -0.000000 0.223658 2.895618 4.019968 9.165941 -0.000000 0.000000 0.223658 0.816390 26.440627 -3.473326 -0.000000 -0.000000 0.109496 8.737837 -22.861550 -4.689211 0.038712 0.001691 0.204072 16.584242 13.873296 0.668999 0.112670 0.000000 -0.000000 -29.592911 8.225191 74.254183 0.324399 0.000000 -0.000000 -4.304849 0.039722 -1.058496 0.295418 -0.000000 -0.000000 -1.044248 -4.559039 0.923998 -0.038825 0.001691 0.204072 17.442157 19.480710 -2.567958 -0.112670 0.000000 0.000000 32.018393 26.077594 -68.428278 -0.324399 0.000000 -0.000000 115.256437 8.170779 5.182041 -0.295418 0.000000 -0.000000 -5.538079 -22.644895 -4.195855 0.099542 0.000000 0.000000 6.698712 -14.945555 -7.748122 -0.000000 0.000000 -0.482893 1.470452 10.060095 2.835527 -0.000000 0.000000 -0.449402 22.008097 -2.022568 -0.023191 -0.000000 -0.149313 -0.064702 -0.000001 0.000002 -0.000000 -0.099542 0.000000 -0.000000 -1.998169 -8.101365 3.509802 0.000000 0.000000 -0.482893 -2.875179 36.338372 8.113368 -0.000000 0.000000 -0.449402 10.548392 -0.524279 -14.067204 -0.000000 -0.149313 -0.064702 0.000000 -0.000002 0.000000 
0.613929 -0.433576 0.968056 -23.348681 3.781603 1.684414 -0.000000 -0.000000 0.081624 -0.178985 4.290312 4.775486 0.000000 -0.000000 0.223658 2.884410 3.914857 9.437789 -0.000000 -0.000000 0.223658 0.766869 26.826780 -3.213901 -0.000000 -0.000000 0.109496 8.951283 -22.413590 -4.509965 0.038712 0.001691 0.204072 16.247017 13.335201 0.552293 0.112670 0.000000 -0.000000 -31.185271 8.490598 73.900393 0.324399 0.000000 0.000000 -5.204299 0.058374 -1.286021 0.295418 -0.000000 0.000000 -1.079150 -2.919927 1.308507 -0.038825 0.001691 0.204072 17.562228 19.647731 -2.655305 -0.112670 0.000000 0.000000 31.996270 25.981048 -68.461097 -0.324399 -0.000000 -0.000000 115.322908 8.337439 5.281250 -0.295418 0.000000 -0.000000 -5.584649 -22.983448 -4.069408 0.099542 -0.000000 -0.000000 6.693788 -14.526991 -7.877663 -0.000000 0.000000 -0.482893 1.429302 12.200235 3.771601 -0.000000 0.000000 -0.449402 22.658446 -3.870027 0.733522 0.000000 -0.149313 -0.064702 -0.000001 0.000000 -0.000000 -0.099542 0.000000 -0.000000 -2.166495 -9.837655 3.375631 0.000000 0.000000 -0.482893 -4.998733 40.566389 10.884408 0.000000 0.000000 -0.449402 12.576043 4.199499 -12.646654 0.000000 -0.149313 -0.064702 0.000003 0.000001 0.000000 
0.616902 -0.450470 0.968645 -23.758779 3.394193 1.918900 -0.000000 -0.000000 0.081624 -0.182420 4.504339 4.635643 0.000000 -0.000000 0.223658 3.019204 3.676013 9.686816 0.000000 -0.000000 0.223658 0.707407 27.171124 -2.925638 0.000000 0.000000 0.109496 9.185233 -21.892942 -4.300113 0.038712 0.001691 0.204072 15.963407 12.793135 0.323104 0.112670 0.000000 -0.000000 -32.467912 8.615637 73.406611 0.324399 0.000000 -0.000000 -6.263480 0.094716 -1.732703 0.295418 -0.000000 -0.000000 -1.081501 -1.404074 1.383791 -0.038825 0.001691 0.204072 17.708328 19.866239 -2.727480 -0.112670 -0.000000 0.000000 31.763327 25.993330 -68.264162 -0.324399 -0.000000 0.000000 115.553304 8.287052 5.226007 -0.295418 0.000000 -0.000000 -5.635318 -23.147798 -3.875494 0.099542 -0.000000 -0.000000 6.888388 -13.725474 -8.087125 -0.000000 0.000000 -0.482893 1.645885 13.409227 4.410179 -0.000000 0.000000 -0.449402 22.549320 -5.605754 1.064507 0.000000 -0.149313 -0.064702 -0.000001 -0.000003 0.000001 -0.099542 0.000000 -0.000000 -2.284542 -11.533318 2.962826 -0.000000 0.000000 -0.482893 -5.538325 44.359067 12.485726 -0.000000 0.000000 -0.449402 12.278967 7.875367 -10.813330 -0.000000 -0.149313 -0.064702 -0.000001 -0.000003 0.000001 
